<?xml version="1.0" standalone="no"?>
<!DOCTYPE svg PUBLIC "-//W3C//DTD SVG 20010904//EN"
 "http://www.w3.org/TR/2001/REC-SVG-20010904/DTD/svg10.dtd">
<svg version="1.0" xmlns="http://www.w3.org/2000/svg"
 width="512.000000pt" height="512.000000pt" viewBox="0 0 512.000000 512.000000"
 preserveAspectRatio="xMidYMid meet">

<g transform="translate(0.000000,512.000000) scale(0.100000,-0.100000)"
fill="#000000" stroke="none">
<path d="M657 5107 c-12 -8 -67 -173 -158 -472 l-140 -460 4 -275 c4 -298 11
-341 70 -442 36 -62 134 -151 205 -187 l62 -31 0 -1560 0 -1560 -143 0 c-127
0 -146 -2 -160 -18 -22 -24 -21 -65 1 -85 17 -16 182 -17 2164 -17 2065 0
2146 1 2161 18 22 24 21 65 -1 85 -15 14 -42 17 -160 17 l-142 0 0 1560 0
1560 62 31 c71 36 169 125 205 187 59 101 66 144 70 442 l4 275 -140 460 c-91
299 -146 464 -158 472 -25 19 -3781 19 -3806 0z m3841 -479 c62 -205 112 -376
112 -380 0 -5 -922 -8 -2050 -8 -1127 0 -2050 3 -2050 8 0 4 50 175 112 380
l112 372 1826 0 1825 0 113 -372z m-2430 -765 c-3 -241 -4 -261 -25 -306 -33
-70 -113 -149 -186 -183 -54 -25 -74 -29 -152 -29 -77 0 -98 4 -147 27 -76 35
-148 104 -184 175 l-29 58 -3 258 -3 257 366 0 366 0 -3 -257z m1710 0 l-3
-258 -29 -58 c-36 -71 -108 -140 -184 -175 -49 -23 -70 -27 -147 -27 -78 0
-98 4 -152 29 -73 34 -153 113 -186 183 -21 45 -22 65 -25 306 l-3 257 366 0
366 0 -3 -257z m-2433 -479 c42 -51 127 -109 203 -136 81 -30 234 -29 316 1
104 37 182 98 252 196 l21 30 15 -30 c27 -51 133 -144 200 -175 184 -86 394
-52 539 87 34 32 68 71 77 88 l15 30 21 -30 c107 -149 233 -217 406 -219 77
-1 108 4 161 23 89 32 164 85 223 158 l49 61 38 -51 c89 -118 243 -196 387
-197 l42 0 0 -1550 0 -1550 -1750 0 -1750 0 0 1550 0 1550 43 0 c143 1 306 85
387 199 l35 50 18 -22 c10 -12 33 -40 52 -63z"/>
<path d="M1250 4660 c-24 -24 -25 -49 -6 -76 14 -19 39 -19 1316 -19 1277 0
1302 0 1316 19 19 27 18 52 -6 76 -20 20 -33 20 -1310 20 -1277 0 -1290 0
-1310 -20z"/>
<path d="M1016 2908 c-13 -18 -16 -56 -16 -210 0 -175 1 -189 20 -208 19 -19
33 -20 344 -20 381 0 356 -8 356 117 l0 73 125 0 c97 0 125 -3 125 -13 0 -7
36 -337 80 -732 44 -395 80 -727 80 -737 0 -9 -13 -24 -29 -32 -51 -27 -123
-109 -155 -176 -29 -60 -31 -73 -31 -170 0 -98 2 -110 32 -170 41 -83 110
-152 193 -193 60 -30 72 -32 165 -32 80 1 111 5 158 24 99 39 195 145 231 254
5 16 29 17 310 17 l304 0 30 -64 c74 -158 218 -244 393 -234 143 8 270 95 333
228 29 60 31 73 31 170 0 97 -2 110 -32 172 -40 85 -106 151 -191 191 -62 30
-75 32 -172 32 -98 0 -109 -2 -172 -33 -112 -55 -194 -161 -219 -285 l-12 -57
-292 0 -292 0 -7 40 c-20 128 -106 244 -223 302 -52 25 -80 32 -146 36 -45 3
-85 10 -89 16 -4 6 -8 26 -8 44 l0 32 739 0 c608 0 741 2 750 14 19 23 341
930 341 961 0 45 -33 90 -82 114 -44 21 -45 21 -959 21 l-916 0 -17 163 c-9
89 -19 169 -22 178 -9 31 -52 39 -204 39 l-150 0 0 58 c0 96 17 92 -363 92
-325 0 -326 0 -341 -22z m1336 -2065 c38 -34 11 -103 -40 -103 -54 0 -81 62
-45 102 20 22 61 23 85 1z m1392 1 c37 -36 7 -104 -45 -104 -29 0 -59 31 -59
60 0 50 69 79 104 44z"/>
</g>
</svg>
